<mxfile host="65bd71144e">
    <diagram id="ifTO72dQq1k43fDW2woW" name="Page-1">
        <mxGraphModel dx="1624" dy="750" grid="1" gridSize="10" guides="1" tooltips="1" connect="1" arrows="1" fold="1" page="1" pageScale="1" pageWidth="1100" pageHeight="850" math="0" shadow="0">
            <root>
                <mxCell id="0"/>
                <mxCell id="1" parent="0"/>
                <mxCell id="2" value="&lt;h3&gt;Za binarno stablo sa slike ispod ispisati elemende u inorder redosledu, i tom prilikom ispisati stanje steka.&amp;nbsp;&lt;/h3&gt;&lt;h3&gt;Takođe prevesti izraz iz infiksne u postfiksnu notaciju, i takođe ispisati izgled pri svakom koraku 2*3/(2-1)+5*3&lt;/h3&gt;" style="text;html=1;align=center;verticalAlign=middle;resizable=0;points=[];autosize=1;strokeColor=none;fillColor=none;" vertex="1" parent="1">
                    <mxGeometry x="175" width="750" height="90" as="geometry"/>
                </mxCell>
            </root>
        </mxGraphModel>
    </diagram>
</mxfile>